<svg data-v-423bf9ae="" xmlns="http://www.w3.org/2000/svg" viewBox="0 0 234 112" class="iconLeft"><!----><!----><!----><g data-v-423bf9ae="" id="b8db185c-5b67-4c15-9343-9a63532da396" fill="white" transform="matrix(6.1224488604322,0,0,6.1224488604322,113.8745945674685,21.26977225173666)"><path d="M3.91 4.76L3.91 4.76L3.91 4.76Q3.70 5.01 3.35 5.11L3.35 5.11L3.35 5.11Q3.54 5.18 3.67 5.27L3.67 5.27L3.67 5.27Q3.79 5.36 3.91 5.49L3.91 5.49L3.91 5.49Q3.92 5.56 3.93 5.61L3.93 5.61L3.93 5.61Q3.93 5.67 3.93 5.74L3.93 5.74L3.93 9.38L3.93 9.38Q3.93 9.84 3.60 10.17L3.60 10.17L3.60 10.17Q3.28 10.50 2.83 10.50L2.83 10.50L0 10.50L0 0.70L2.83 0.70L2.83 0.70Q3.28 0.70 3.60 1.03L3.60 1.03L3.60 1.03Q3.93 1.36 3.93 1.82L3.93 1.82L3.93 4.48L3.93 4.48Q3.93 4.55 3.93 4.62L3.93 4.62L3.93 4.62Q3.92 4.69 3.91 4.76ZM2.95 9.38L2.95 5.74L2.95 5.74Q2.95 5.61 2.83 5.61L2.83 5.61L0.98 5.61L0.98 9.52L2.83 9.52L2.83 9.52Q2.95 9.52 2.95 9.38L2.95 9.38ZM2.95 4.48L2.95 1.82L2.95 1.82Q2.95 1.68 2.83 1.68L2.83 1.68L0.98 1.68L0.98 4.62L2.83 4.62L2.83 4.62Q2.95 4.62 2.95 4.48L2.95 4.48ZM5.82 9.51L8.37 9.51L8.37 10.50L4.84 10.50L4.84 9.51L4.84 0.70L5.82 0.70L5.82 9.51ZM12.82 1.68L10.28 1.68L10.28 4.62L12.32 4.62L12.32 5.60L10.28 5.60L10.28 9.52L12.82 9.52L12.82 10.50L9.30 10.50L9.30 4.62L10.28 4.62L9.30 1.68L9.30 0.70L12.82 0.70L12.82 1.68ZM14.71 0.70L14.71 10.50L13.73 10.50L13.73 0.70L14.71 0.70ZM15.62 0.70L18.41 0.70L18.41 0.70Q18.87 0.70 19.20 1.04L19.20 1.04L19.20 1.04Q19.53 1.37 19.53 1.83L19.53 1.83L19.53 9.39L19.53 9.39Q19.53 9.84 19.20 10.17L19.20 10.17L19.20 10.17Q18.87 10.50 18.41 10.50L18.41 10.50L15.62 10.50L15.62 4.62L16.60 4.62L15.62 1.68L15.62 0.70ZM18.55 9.39L18.55 1.83L18.55 1.83Q18.55 1.69 18.41 1.69L18.41 1.69L16.60 1.69L16.60 9.52L18.41 9.52L18.41 9.52Q18.55 9.52 18.55 9.39L18.55 9.39Z"></path></g><!----><g data-v-423bf9ae="" id="0a888f7a-accc-404f-8d77-c3e94acf26f2" transform="matrix(1.1111104329427084,0,0,1.1111104329427084,4.4863890493851315,9.29290243066498)" stroke="none" fill="white"><path d="M63.993 46.679L38.896 90.14c-1.16 2.07-3.751 2.846-5.692 1.681L-1.587 71.644c-2.071-1.163-2.846-3.749-1.686-5.82l25.096-43.462L42.262 9.555l9.83 5.563c.646-1.811.515-1.941.905-3.752.905-4.009 1.811-11.123 9.829-17.203 2.717-2.329 6.854-2.329 10.605-.388 2.07.905 3.882 2.456 5.177 4.139 1.291 1.938 1.937 4.009 2.066 5.95-.13 2.456-1.291 5.82-6.723 8.406-4.272 1.941-7.895 2.459-11.256 2.847-2.977.388-5.302.647-7.243 1.941l9.574 5.562-1.033 24.059zm-10.09-12.805c2.071-3.492 1.421-7.761-1.035-10.607L48.47 20.55c-3.882-1.293-8.278.388-10.479 4.14-2.456 4.397-1.036 9.959 3.366 12.546 4.398 2.458 10.09 1.035 12.546-3.362zm1.166-22.248c0 .647-.13 1.035-.261 1.553-.13.645 0 1.033-.26 1.811 2.331-1.553 4.787-1.683 7.894-1.941 3.102-.388 6.723-.905 10.604-2.716 3.622-1.553 5.433-3.882 5.562-6.468 0-2.976-2.2-6.08-5.432-7.891-.131-.127-.391-.257-.646-.388-3.106-1.551-6.213-1.551-8.539.26-7.241 5.56-8.277 11.901-8.922 15.78z"></path></g><!----></svg>